<svg width="12" height="12" viewBox="0 0 12 12" fill="none" xmlns="http://www.w3.org/2000/svg">
<path d="M11 6.83335H6.83335V11C6.83335 11.4584 6.45835 11.8334 6.00002 11.8334C5.54169 11.8334 5.16669 11.4584 5.16669 11V6.83335H1.00002C0.541687 6.83335 0.166687 6.45835 0.166687 6.00002C0.166687 5.54169 0.541687 5.16669 1.00002 5.16669H5.16669V1.00002C5.16669 0.541687 5.54169 0.166687 6.00002 0.166687C6.45835 0.166687 6.83335 0.541687 6.83335 1.00002V5.16669H11C11.4584 5.16669 11.8334 5.54169 11.8334 6.00002C11.8334 6.45835 11.4584 6.83335 11 6.83335Z" fill="white"/>
</svg>
