<svg width="14" height="13" viewBox="0 0 14 13" fill="none" xmlns="http://www.w3.org/2000/svg">
<path fill-rule="evenodd" clip-rule="evenodd" d="M12.707 12.707C12.5195 12.8945 12.2652 12.9998 12 12.9998C11.7349 12.9998 11.4806 12.8945 11.293 12.707L6.29303 7.70702C6.10556 7.51949 6.00024 7.26518 6.00024 7.00002C6.00024 6.73486 6.10556 6.48055 6.29303 6.29302L11.293 1.29302C11.3853 1.19751 11.4956 1.12133 11.6176 1.06892C11.7396 1.01651 11.8709 0.988924 12.0036 0.98777C12.1364 0.986616 12.2681 1.01192 12.391 1.0622C12.5139 1.11248 12.6255 1.18673 12.7194 1.28062C12.8133 1.37452 12.8876 1.48617 12.9379 1.60907C12.9881 1.73196 13.0134 1.86364 13.0123 1.99642C13.0111 2.1292 12.9835 2.26042 12.9311 2.38242C12.8787 2.50443 12.8025 2.61477 12.707 2.70702L8.41403 7.00002L12.707 11.293C12.8945 11.4805 12.9998 11.7349 12.9998 12C12.9998 12.2652 12.8945 12.5195 12.707 12.707ZM6.70703 12.707C6.5195 12.8945 6.26519 12.9998 6.00003 12.9998C5.73487 12.9998 5.48056 12.8945 5.29303 12.707L0.293031 7.70702C0.105559 7.51949 0.000244141 7.26518 0.000244141 7.00002C0.000244141 6.73486 0.105559 6.48055 0.293031 6.29302L5.29303 1.29302C5.48163 1.11086 5.73423 1.01007 5.99643 1.01235C6.25863 1.01462 6.50944 1.11979 6.69485 1.3052C6.88026 1.49061 6.98543 1.74142 6.9877 2.00362C6.98998 2.26582 6.88919 2.51842 6.70703 2.70702L2.41403 7.00002L6.70703 11.293C6.8945 11.4805 6.99982 11.7349 6.99982 12C6.99982 12.2652 6.8945 12.5195 6.70703 12.707Z" fill="#1A2024"/>
</svg>
